HIERARCHY
ROOT Hips
{
  OFFSET 0.0 0.0 0.0
  CHANNELS 6 XPOSITION YPOSITION ZPOSITION ZROTATION XROTATION YROTATION 
  JOINT LeftUpLeg
  {
    OFFSET 0.089458 -0.0866707 0.00101652
    CHANNELS 3 ZROTATION XROTATION YROTATION 
    JOINT LeftLeg
    {
      OFFSET 0.0 -0.444227 0.013727
      CHANNELS 3 ZROTATION XROTATION YROTATION 
      JOINT LeftFoot
      {
        OFFSET -0.00253549 -0.420924 -0.0146059
        CHANNELS 3 ZROTATION XROTATION YROTATION 
        End Site
        {
          OFFSET -0.0004 -0.0441509 0.084991
        }
      }
    }
  }
  JOINT Spine
  {
    OFFSET 0.0 0.118905 0.0
    CHANNELS 3 ZROTATION XROTATION YROTATION 
    JOINT Spine1
    {
      OFFSET 0.0 0.256574 0.00127663
      CHANNELS 3 ZROTATION XROTATION YROTATION 
      End Site
      {
        OFFSET -0.0029 0.2150836 0.02525291
      }
      JOINT RightArm
      {
        OFFSET -0.162727 -0.05365632 0.00102123
        CHANNELS 3 ZROTATION XROTATION YROTATION 
        JOINT RightForeArm
        {
          OFFSET -0.26364 0.00099144 -0.0142434
          CHANNELS 3 ZROTATION XROTATION YROTATION 
          End Site
          {
            OFFSET -0.220324 0.00085362 0.0102216
          }
        }
      }
      JOINT LeftArm
      {
        OFFSET 0.162727 -0.0536563199 0.00102123
        CHANNELS 3 ZROTATION XROTATION YROTATION 
        JOINT LeftForeArm
        {
          OFFSET 0.262597 0.00099144 -0.0142434
          CHANNELS 3 ZROTATION XROTATION YROTATION 
          End Site
          {
            OFFSET 0.220902 0.00085362 0.0102216
          }
        }
      }
    }
  }
  JOINT RightUpLeg
  {
    OFFSET -0.089458 -0.0866707 0.00101652
    CHANNELS 3 ZROTATION XROTATION YROTATION 
    JOINT RightLeg
    {
      OFFSET 0.0 -0.444227 0.013727
      CHANNELS 3 ZROTATION XROTATION YROTATION 
      JOINT RightFoot
      {
        OFFSET 0.00253549 -0.420924 -0.0146059
        CHANNELS 3 ZROTATION XROTATION YROTATION 
        End Site
        {
          OFFSET 0.0004 -0.0441509 0.084991
        }
      }
    }
  }
}
MOTION
Frames: 18
Frame Time: 0.033333
-31.075408 0.948961725114 -0.68164825 -8.09814292621 1.01788676359 -92.7532107778 -1.66908094776 -19.9193622048 -3.59856115008 0.481179516591 10.7104392743 24.3229798231 -5.46008438525 -13.7033419375 -0.196332653774 7.11716767884 12.2384891954 1.30370136549 -7.08072520452 1.42326692184 3.31490061908 76.9249850367 -6.12956757486 17.6944297903 8.17899870561 28.8754340936 12.0874950572 -72.5192534749 -12.8336437052 6.49779118386 -6.45487966663 39.2724095199 -10.5801696376 3.91198743203 18.6292094801 -8.93058503791 0.43095126593 16.5761656061 -10.2433362973 5.17126812864 -28.010417956 0.641616764852 
-31.114468 0.943697225114 -0.6796953 -7.8340587846 0.951738195743 -93.8417175352 -2.17152716546 -19.6756576402 -3.31006420482 0.705218846073 14.4269338857 26.2330131962 -3.1795644761 -11.5902154507 -0.0489970757125 6.93046531165 11.6617975408 1.69801725762 -7.58949788495 1.6353262596 3.7980103578 77.7277849812 -9.00003781649 16.3999433105 8.92412965537 31.973853788 10.0931370224 -71.7736153835 -14.2269800977 6.76467612993 -7.04510064536 40.3046935752 -9.51152336267 2.95628089638 20.3057272232 -9.49783054094 -0.238990853699 17.4378947152 -8.32611415014 6.97015383337 -28.3444227442 1.00341562045 
-31.154997 0.940384725114 -0.67814332 -7.7245059654 -0.115638037495 -94.8612052311 -3.48360821257 -19.4651819458 -2.71586634844 0.706430457599 18.0620288638 25.7894829096 -0.633448338852 -6.86905123884 0.0370194585488 5.00314601043 11.1954228327 2.21391019681 -7.358339524 1.55255141049 4.11711338073 78.2585999627 -11.8686387207 14.5405387146 9.48790798362 35.2878752336 8.15454577461 -70.9809651002 -15.6858589856 7.47174542366 -7.6591231258 41.0007274177 -8.48315129822 0.884664617516 21.9668736255 -9.26175273624 -0.856092068588 18.5080009431 -6.90005901701 9.22099870501 -27.8534789919 1.39229884414 
-31.195246 0.938403225114 -0.67693656 -7.74869849544 -1.88564959775 -94.8948234222 -5.59963752971 -19.7186622187 -1.42999978082 0.905565690067 22.296735904 23.3675285658 1.11238435174 -3.65694603399 -0.0269785301851 1.77115332243 11.0821091406 2.44895941771 -6.39904244328 0.887428122726 3.88521607869 78.5938119868 -14.7188356802 12.1746269267 9.84453350453 37.8205571892 6.35670722326 -70.0060717094 -18.0551457407 8.13552967418 -8.79559317916 42.3550002509 -6.67150338503 -1.88816758968 22.8214037153 -8.1857213193 -0.75992401893 21.1430076701 -6.87668610967 13.2601548679 -26.7063760416 2.00178245044 
-31.232386 0.936334225114 -0.67254786 -7.8933900766 -3.08791016763 -94.7274974479 -7.4784697449 -19.0637000113 -0.992834056597 1.16322998747 25.7311991979 22.018900884 2.00350002957 -4.57593987596 -0.0405352984241 -0.200204997507 11.4440997751 2.6469000074 -5.93694983696 0.341160985451 3.74986008548 78.5885185902 -19.7268003891 8.9600760872 11.497200227 42.7039033891 2.02028991521 -69.4069684965 -19.1695833113 9.06129266051 -9.28797041737 42.8537987207 -5.76725976345 -4.21445040659 22.2169012379 -5.87932011584 -0.741109996057 26.4639009109 -7.65569010197 18.319200854 -24.2939002928 2.47961010505 
-31.267165 0.937118225114 -0.66740916 -8.1285995935 -3.72386993502 -95.0407982252 -8.68584057693 -17.5922006414 -0.615329020923 1.19847995345 27.8507998502 22.308398452 2.4801900308 -7.91011977119 0.0378017986883 -1.21101996732 11.6587999415 2.83484013294 -5.91138017003 0.0604463003706 3.74319979726 77.8866005398 -22.1534334125 5.41854872424 12.5473990148 45.3501987114 -1.31326992691 -69.2272252383 -19.412114791 8.85545978723 -9.30092045603 42.8753001562 -5.68628018688 -6.06599046652 19.160599905 -3.28017977932 -0.779277946913 35.7618015696 -8.37785027178 20.6589009372 -18.4208989557 1.77437002136 
-31.299205 0.941045225114 -0.66226476 -8.32299019237 -4.03220986048 -95.8866010407 -9.45250028296 -15.3290994222 -0.0813484001184 1.22171006715 28.0704006773 22.8892018805 2.61405981754 -10.7275992708 0.119638994224 -1.86956001995 12.0333000675 2.96909006239 -5.88960979583 -0.22376199979 3.71458002398 76.9449155287 -22.96049198 2.45398302184 13.1881996787 46.5837991774 -3.11970000246 -69.4039495529 -19.2110408521 8.29565321399 -8.72952988196 42.2961991523 -6.59806006843 -7.2888099058 13.7483998416 -0.790570010519 -1.01972995417 47.0699993632 -10.0238993948 19.0912990982 -9.57419973982 0.162167994185 
-31.328287 0.945228225114 -0.65814856 -8.58817997086 -4.23476979249 -96.8192019001 -9.98603026469 -13.0254004123 0.667248970703 1.20437003111 27.7151010669 23.0322004285 2.11911997774 -12.2505000831 0.14492299383 -2.93772007075 12.6583998341 2.94987994191 -5.44397965296 -0.494669993975 3.35443012546 76.0308176517 -22.7511791253 0.186281323379 13.2503006124 46.868300462 -3.15039999523 -69.8099223368 -18.0400715132 7.54637719317 -7.6448198559 40.6749991113 -8.54297009497 -7.6948697746 7.44740006813 1.35815003273 -1.38112999075 57.8848013667 -11.7904996491 16.190799503 -3.10074003766 -0.802312012837 
-31.355706 0.949443225114 -0.65492666 -8.98743953256 -4.05928985299 -97.2533970257 -10.0485000286 -10.5169007415 1.3752999974 1.04720001451 27.1980011052 22.9549014701 1.4326099803 -13.5422997372 0.141870005993 -3.88784997039 13.3838999664 2.58704983447 -4.54934994952 -0.59325603732 2.59094987249 75.2102523852 -22.1369794868 -1.53853959758 12.5213998997 46.2443012096 -1.42193994415 -70.2769706722 -16.0187589906 6.2401167479 -6.57585981919 38.6757002884 -10.6139005268 -7.21575932508 1.59277994404 2.58272995326 -1.95909995798 66.5854993126 -12.6047008868 14.4483994627 -2.35768994771 -0.814691037017 
-31.382366 0.953806225114 -0.65211486 -9.41953010606 -3.47280007854 -97.1790982279 -9.66525982183 -7.71340007781 1.85173984296 0.748277959426 26.3581986109 22.9070013535 1.15335001212 -15.0981007169 0.153426992893 -4.37663026023 13.9789007969 1.97263013584 -3.45122991425 -0.442165022484 1.61992002088 74.5286609777 -21.4328604079 -2.835239699 11.260199493 44.5965009968 1.41955994339 -70.6417027739 -13.7734845651 4.36180448086 -5.58083017694 36.9499027304 -12.4691002874 -6.2130102884 -3.69690007931 2.9357600199 -2.72391999525 72.5962980087 -12.7676000447 13.8964006494 -4.95145983455 -0.485141986805 
-31.408531 0.957612225114 -0.64982086 -9.73890975165 -2.85740003432 -96.9119968502 -9.18514960337 -4.95812994116 2.06629999045 0.30679101998 25.2442015874 22.8307986405 1.12604995945 -16.431900058 0.173081996148 -4.84238000596 14.3817009579 1.34380001873 -2.30913989587 -0.311425997023 0.635798030648 74.1630887628 -20.0136119852 -3.71742180956 9.92571969432 41.7105992234 4.50078986585 -70.8235292398 -11.3141272516 2.45218838964 -4.30730981657 34.8030991422 -14.6476002223 -5.13153008805 -8.77174045103 2.97353993064 -3.44625006602 75.8790986597 -12.8508993243 13.3150994709 -7.19990987111 -0.223006009906 
-31.434517 0.960956225114 -0.64805546 -9.9221697035 -2.2799399834 -96.6273009052 -8.65096050839 -2.30542982249 2.27351000062 -0.154626998433 23.9116999823 22.493298503 0.949857012236 -17.3722002482 0.173149004039 -5.25020974752 14.7477000597 0.761724040581 -1.16308004348 -0.523864036757 -0.224266006385 74.1720431408 -17.9953098685 -4.16100801832 8.8554802778 38.4815999726 7.05981970302 -70.7559991595 -8.23119415747 0.901592227518 -2.68977993501 31.3600998193 -17.5271004009 -3.94038010152 -13.589599651 3.11121989572 -3.6838898496 76.5245993476 -13.1300995283 12.2120999058 -8.38954014055 -0.0980931024566 
-31.459989 0.963539225114 -0.64659956 -10.0679003272 -1.63789996026 -96.4121977577 -8.03228026582 0.256049011028 2.68141017852 -0.465983999874 22.6942990174 21.9519001433 0.625982034955 -18.4035007563 0.157404991115 -5.33097972267 15.241299048 0.279440994872 -0.145599996311 -0.943607922754 -0.847652035847 74.3807190803 -16.4556827767 -4.1181963926 8.12828967366 36.1385001627 8.76742035638 -70.373508566 -5.3396446714 -0.446225596626 -1.07781004089 27.6830999231 -20.7965992584 -2.60977003186 -17.7929996653 3.41851992488 -3.26197006811 74.6423016651 -13.6377994422 11.7404002115 -9.91301041982 0.049220400887 
-31.484945 0.964725225114 -0.64548276 -10.2316993625 -1.08501994589 -96.2216013289 -7.56568016154 2.58738003143 3.14137005826 -0.598604982575 21.932299208 21.4174993125 0.416981021117 -19.635699326 0.1501289987 -5.30592018549 15.744999886 -0.0467165028961 0.683006003675 -1.19236010395 -1.24881994174 74.7016764996 -15.7116651478 -3.58112068892 7.68985043933 34.6279013749 9.76983001803 -69.7504108985 -4.84104427709 -1.89876356096 0.298926990966 26.3731994139 -24.0133997915 -1.544489973 -21.1619990111 3.49715994821 -2.59357010381 70.582601147 -14.4323997446 12.3579995766 -11.9373999426 0.269901995366 
-31.50981 0.965145225114 -0.64478736 -10.347399352 -0.771057974329 -95.87429987 -7.39112955466 4.73347007832 3.39721997995 -0.600428963249 21.2806991612 20.9276996169 0.486917035576 -20.5459996178 0.167400999646 -5.34469986516 16.0652998996 -0.287775986774 1.41644996616 -1.15986996129 -1.52804992112 75.1613755515 -15.370488661 -2.7336131009 7.45236049302 33.4748015185 10.3748003634 -69.1765247441 -6.91919507263 -3.5470741169 1.49327006425 27.7815997886 -27.0091002709 -1.01512992848 -23.7627984433 2.85596014507 -2.0716599814 64.9329965147 -15.5765008268 12.7378998209 -13.4364002154 0.443930999911 
-31.534511 0.965150225114 -0.64433896 -10.3852001802 -0.592827016063 -95.4308020268 -7.40245059321 6.84511996354 3.43421015006 -0.500737016227 20.4100993439 20.5894003473 0.738096015004 -21.1443993212 0.20438200503 -5.17821016216 16.2691998294 -0.465924022275 1.94877996903 -0.973798959711 -1.66274989601 75.7103998174 -15.0775281871 -1.80599827953 7.29942999618 32.6638975545 10.7921001622 -68.8147979257 -8.42208599194 -5.36407967316 2.50553003262 28.8887017361 -29.5390996696 -0.761206013421 -25.702099177 1.69069999059 -1.72080010065 58.2412006376 -16.3965008951 12.2889002603 -14.1913999348 0.499893007617 
-31.559517 0.963282225114 -0.64399466 -10.4677003276 -0.515249994274 -95.1702029892 -7.59315972012 8.93306951922 3.47885013204 -0.372266013777 19.7459010131 20.5509993163 0.848556982551 -22.1723001026 0.232093002968 -4.73654024835 16.4594001072 -0.491669993465 2.01891982195 -0.660364993793 -1.56328996197 76.208218155 -14.7152122649 -0.826130003051 7.16452949121 32.3545992682 11.0825001689 -68.6634067827 -9.0908614032 -7.31107717626 3.20060999648 29.4896012887 -31.3393018933 -0.569984035353 -26.8451996364 0.589658021732 -1.4143300462 50.8624994659 -15.9117999358 12.2636003859 -14.7823000904 0.560357043801 
-31.586009 0.959318225114 -0.64387366 -10.641600359 -0.647864040065 -95.0259972052 -7.99501987635 11.0402008074 3.65913980537 -0.319462995242 19.418900584 20.5785984032 0.64365498935 -23.6275009335 0.223405002344 -4.30791983784 16.479199118 -0.415019983093 1.78231993467 -0.0967906974396 -1.34096997253 76.554474595 -14.1101403205 0.243945168766 7.04330985514 32.3350990781 11.3118997562 -68.7184990886 -9.10914667338 -9.2340708333 3.51363009562 29.7079009648 -32.250100789 -0.602638956332 -26.9845986748 -0.504593992035 -1.13127996336 42.9086007435 -14.5312001384 13.1025004414 -15.4435016757 0.6873370373 
